<svg width="20" height="20" viewBox="0 0 20 20" fill="none" xmlns="http://www.w3.org/2000/svg">
<path d="M13.4178 7.85895C13.5479 7.7301 13.7237 7.65782 13.9068 7.65782C14.0899 7.65782 14.2657 7.7301 14.3958 7.85895C14.4601 7.92222 14.5111 7.99764 14.5459 8.08082C14.5807 8.164 14.5987 8.25327 14.5987 8.34345C14.5987 8.43362 14.5807 8.5229 14.5459 8.60608C14.5111 8.68925 14.4601 8.76468 14.3958 8.82795L10.4878 12.6579C10.3574 12.7866 10.1815 12.8588 9.99831 12.8588C9.81509 12.8588 9.63924 12.7866 9.50881 12.6579L5.60081 8.82795C5.53656 8.76468 5.48554 8.68925 5.45071 8.60608C5.41588 8.5229 5.39795 8.43362 5.39795 8.34345C5.39795 8.25327 5.41588 8.164 5.45071 8.08082C5.48554 7.99764 5.53656 7.92222 5.60081 7.85895C5.73095 7.7301 5.90668 7.65782 6.08981 7.65782C6.27295 7.65782 6.44868 7.7301 6.57881 7.85895L9.99981 10.9999L13.4178 7.85895Z" fill="#EBEDF2"/>
</svg>
