<svg width="20" height="20" viewBox="0 0 20 20" fill="none" xmlns="http://www.w3.org/2000/svg">
<path d="M12.1409 13.4181C12.2698 13.5482 12.3421 13.7239 12.3421 13.9071C12.3421 14.0902 12.2698 14.2659 12.1409 14.3961C12.0777 14.4603 12.0022 14.5113 11.9191 14.5462C11.8359 14.581 11.7466 14.5989 11.6564 14.5989C11.5663 14.5989 11.477 14.581 11.3938 14.5462C11.3106 14.5113 11.2352 14.4603 11.1719 14.3961L7.34193 10.4881C7.21326 10.3576 7.14111 10.1818 7.14111 9.99856C7.14111 9.81534 7.21326 9.63949 7.34193 9.50906L11.1719 5.60106C11.2352 5.53681 11.3106 5.48578 11.3938 5.45096C11.477 5.41613 11.5663 5.39819 11.6564 5.39819C11.7466 5.39819 11.8359 5.41613 11.9191 5.45096C12.0022 5.48578 12.0777 5.53681 12.1409 5.60106C12.2698 5.73119 12.3421 5.90692 12.3421 6.09006C12.3421 6.27319 12.2698 6.44892 12.1409 6.57906L8.99993 10.0001L12.1409 13.4181Z" fill="#EBEDF2"/>
</svg>
