<svg xmlns="http://www.w3.org/2000/svg" width="18.473" height="24.667" viewBox="0 0 18.473 24.667"><defs><style>.a{fill:#1034fe;}</style></defs><g transform="translate(0)"><g transform="translate(0)"><path class="a" d="M29.373,5.274A8.12,8.12,0,0,0,31.1,10.125a9.027,9.027,0,0,0-11.127,0A8.12,8.12,0,0,0,21.7,5.274h7.674M31.1,24.541a8.12,8.12,0,0,0-1.727,4.851H21.7a7.975,7.975,0,0,0-1.754-4.851,9,9,0,0,0,5.564,1.919A9.3,9.3,0,0,0,31.1,24.541M29.647,5H21.425v.192a7.894,7.894,0,0,1-2.384,5.564,9.264,9.264,0,0,0,0,13.156,7.782,7.782,0,0,1,2.384,5.564v.192h8.222v-.192a7.894,7.894,0,0,1,2.384-5.564,9.264,9.264,0,0,0,0-13.156,7.894,7.894,0,0,1-2.384-5.564V5ZM25.536,26.158a8.825,8.825,0,1,1,8.825-8.825,8.819,8.819,0,0,1-8.825,8.825Z" transform="translate(-16.3 -5)"/><g transform="translate(5.893 6.523)"><path class="a" d="M46.68,28.8l-5.536,5.536L38.1,31.267l-.3.3,3.07,3.042h0l.274.3,5.81-5.81Z" transform="translate(-37.8 -28.8)"/></g></g></g></svg>